<svg width="113" height="26" viewBox="0 0 113 26" fill="none" xmlns="http://www.w3.org/2000/svg">
<path d="M38.484 20.956C38.1613 21.1467 37.714 21.242 37.142 21.242C36.658 21.242 36.2693 21.11 35.976 20.846C35.6973 20.5673 35.558 20.12 35.558 19.504C35.0447 20.12 34.4433 20.5673 33.754 20.846C33.0793 21.11 32.346 21.242 31.554 21.242C31.0407 21.242 30.5493 21.1833 30.08 21.066C29.6253 20.9487 29.2293 20.7653 28.892 20.516C28.5547 20.2667 28.2833 19.944 28.078 19.548C27.8873 19.1373 27.792 18.646 27.792 18.074C27.792 17.4287 27.902 16.9007 28.122 16.49C28.342 16.0793 28.628 15.7493 28.98 15.5C29.3467 15.236 29.7573 15.038 30.212 14.906C30.6813 14.774 31.158 14.664 31.642 14.576C32.1553 14.4733 32.6393 14.4 33.094 14.356C33.5633 14.2973 33.974 14.224 34.326 14.136C34.678 14.0333 34.9567 13.894 35.162 13.718C35.3673 13.5273 35.47 13.256 35.47 12.904C35.47 12.4933 35.3893 12.1633 35.228 11.914C35.0813 11.6647 34.8833 11.474 34.634 11.342C34.3993 11.21 34.128 11.122 33.82 11.078C33.5267 11.034 33.2333 11.012 32.94 11.012C32.148 11.012 31.488 11.166 30.96 11.474C30.432 11.7673 30.146 12.332 30.102 13.168H28.232C28.2613 12.464 28.408 11.87 28.672 11.386C28.936 10.902 29.288 10.5133 29.728 10.22C30.168 9.912 30.6667 9.692 31.224 9.56C31.796 9.428 32.4047 9.362 33.05 9.362C33.5633 9.362 34.0693 9.39867 34.568 9.472C35.0813 9.54533 35.5433 9.69933 35.954 9.934C36.3647 10.154 36.6947 10.4693 36.944 10.88C37.1933 11.2907 37.318 11.826 37.318 12.486V18.338C37.318 18.778 37.34 19.1007 37.384 19.306C37.4427 19.5113 37.6187 19.614 37.912 19.614C38.0733 19.614 38.264 19.5773 38.484 19.504V20.956ZM35.448 15.126C35.2133 15.302 34.9053 15.434 34.524 15.522C34.1427 15.5953 33.7393 15.6613 33.314 15.72C32.9033 15.764 32.4853 15.8227 32.06 15.896C31.6347 15.9547 31.2533 16.0573 30.916 16.204C30.5787 16.3507 30.3 16.5633 30.08 16.842C29.8747 17.106 29.772 17.4727 29.772 17.942C29.772 18.25 29.8307 18.514 29.948 18.734C30.08 18.9393 30.2413 19.108 30.432 19.24C30.6373 19.372 30.872 19.4673 31.136 19.526C31.4 19.5847 31.6787 19.614 31.972 19.614C32.588 19.614 33.116 19.5333 33.556 19.372C33.996 19.196 34.3553 18.9833 34.634 18.734C34.9127 18.47 35.118 18.1913 35.25 17.898C35.382 17.59 35.448 17.304 35.448 17.04V15.126ZM45.3504 21L49.5084 9.626H47.5504L44.4484 19.108H44.4044L41.2144 9.626H39.1244L43.3484 21H45.3504ZM52.5884 15.324C52.5884 14.6347 52.6764 14.026 52.8524 13.498C53.0431 12.9553 53.2997 12.5007 53.6224 12.134C53.9451 11.7673 54.3191 11.4887 54.7444 11.298C55.1844 11.1073 55.6464 11.012 56.1304 11.012C56.6144 11.012 57.0691 11.1073 57.4944 11.298C57.9344 11.4887 58.3157 11.7673 58.6384 12.134C58.9611 12.5007 59.2104 12.9553 59.3864 13.498C59.5771 14.026 59.6724 14.6347 59.6724 15.324C59.6724 16.0133 59.5771 16.6293 59.3864 17.172C59.2104 17.7 58.9611 18.1473 58.6384 18.514C58.3157 18.866 57.9344 19.1373 57.4944 19.328C57.0691 19.5187 56.6144 19.614 56.1304 19.614C55.6464 19.614 55.1844 19.5187 54.7444 19.328C54.3191 19.1373 53.9451 18.866 53.6224 18.514C53.2997 18.1473 53.0431 17.7 52.8524 17.172C52.6764 16.6293 52.5884 16.0133 52.5884 15.324ZM50.6084 15.324C50.6084 16.16 50.7257 16.9373 50.9604 17.656C51.1951 18.3747 51.5471 19.0053 52.0164 19.548C52.4857 20.076 53.0651 20.494 53.7544 20.802C54.4437 21.0953 55.2357 21.242 56.1304 21.242C57.0397 21.242 57.8317 21.0953 58.5064 20.802C59.1957 20.494 59.7751 20.076 60.2444 19.548C60.7137 19.0053 61.0657 18.3747 61.3004 17.656C61.5351 16.9373 61.6524 16.16 61.6524 15.324C61.6524 14.488 61.5351 13.7107 61.3004 12.992C61.0657 12.2587 60.7137 11.628 60.2444 11.1C59.7751 10.5573 59.1957 10.132 58.5064 9.824C57.8317 9.516 57.0397 9.362 56.1304 9.362C55.2357 9.362 54.4437 9.516 53.7544 9.824C53.0651 10.132 52.4857 10.5573 52.0164 11.1C51.5471 11.628 51.1951 12.2587 50.9604 12.992C50.7257 13.7107 50.6084 14.488 50.6084 15.324ZM65.2212 15.412C65.2212 14.8547 65.2799 14.312 65.3972 13.784C65.5146 13.256 65.7052 12.7867 65.9692 12.376C66.2332 11.9653 66.5852 11.6353 67.0252 11.386C67.4652 11.1367 68.0006 11.012 68.6312 11.012C69.2766 11.012 69.8266 11.1367 70.2812 11.386C70.7359 11.6207 71.1026 11.936 71.3812 12.332C71.6746 12.728 71.8872 13.19 72.0192 13.718C72.1512 14.2313 72.2172 14.7667 72.2172 15.324C72.2172 15.852 72.1512 16.3727 72.0192 16.886C71.9019 17.3993 71.7039 17.8613 71.4252 18.272C71.1466 18.668 70.7872 18.9907 70.3472 19.24C69.9072 19.4893 69.3719 19.614 68.7412 19.614C68.1399 19.614 67.6119 19.4967 67.1572 19.262C66.7172 19.0273 66.3506 18.712 66.0572 18.316C65.7786 17.92 65.5659 17.4727 65.4192 16.974C65.2872 16.4607 65.2212 15.94 65.2212 15.412ZM74.0212 25.334V9.626H72.1512V11.144H72.1072C71.9019 10.8067 71.6452 10.528 71.3372 10.308C71.0439 10.0733 70.7286 9.89 70.3912 9.758C70.0539 9.61133 69.7166 9.50867 69.3792 9.45C69.0419 9.39133 68.7266 9.362 68.4332 9.362C67.5679 9.362 66.8052 9.52333 66.1452 9.846C65.4999 10.154 64.9572 10.5793 64.5172 11.122C64.0919 11.65 63.7692 12.2733 63.5492 12.992C63.3439 13.7107 63.2412 14.4733 63.2412 15.28C63.2412 16.0867 63.3512 16.8493 63.5712 17.568C63.7912 18.2867 64.1139 18.9173 64.5392 19.46C64.9792 20.0027 65.5219 20.4353 66.1672 20.758C66.8272 21.0807 67.5972 21.242 68.4772 21.242C69.2692 21.242 69.9952 21.1027 70.6552 20.824C71.3152 20.5453 71.7992 20.0907 72.1072 19.46H72.1512V25.334H74.0212ZM86.9742 20.956C86.6516 21.1467 86.2042 21.242 85.6322 21.242C85.1482 21.242 84.7596 21.11 84.4662 20.846C84.1876 20.5673 84.0482 20.12 84.0482 19.504C83.5349 20.12 82.9336 20.5673 82.2442 20.846C81.5696 21.11 80.8362 21.242 80.0442 21.242C79.5309 21.242 79.0396 21.1833 78.5702 21.066C78.1156 20.9487 77.7196 20.7653 77.3822 20.516C77.0449 20.2667 76.7736 19.944 76.5682 19.548C76.3776 19.1373 76.2822 18.646 76.2822 18.074C76.2822 17.4287 76.3922 16.9007 76.6122 16.49C76.8322 16.0793 77.1182 15.7493 77.4702 15.5C77.8369 15.236 78.2476 15.038 78.7022 14.906C79.1716 14.774 79.6482 14.664 80.1322 14.576C80.6456 14.4733 81.1296 14.4 81.5842 14.356C82.0536 14.2973 82.4642 14.224 82.8162 14.136C83.1682 14.0333 83.4469 13.894 83.6522 13.718C83.8576 13.5273 83.9602 13.256 83.9602 12.904C83.9602 12.4933 83.8796 12.1633 83.7182 11.914C83.5716 11.6647 83.3736 11.474 83.1242 11.342C82.8896 11.21 82.6182 11.122 82.3102 11.078C82.0169 11.034 81.7236 11.012 81.4302 11.012C80.6382 11.012 79.9782 11.166 79.4502 11.474C78.9222 11.7673 78.6362 12.332 78.5922 13.168H76.7222C76.7516 12.464 76.8982 11.87 77.1622 11.386C77.4262 10.902 77.7782 10.5133 78.2182 10.22C78.6582 9.912 79.1569 9.692 79.7142 9.56C80.2862 9.428 80.8949 9.362 81.5402 9.362C82.0536 9.362 82.5596 9.39867 83.0582 9.472C83.5716 9.54533 84.0336 9.69933 84.4442 9.934C84.8549 10.154 85.1849 10.4693 85.4342 10.88C85.6836 11.2907 85.8082 11.826 85.8082 12.486V18.338C85.8082 18.778 85.8302 19.1007 85.8742 19.306C85.9329 19.5113 86.1089 19.614 86.4022 19.614C86.5636 19.614 86.7542 19.5773 86.9742 19.504V20.956ZM83.9382 15.126C83.7036 15.302 83.3956 15.434 83.0142 15.522C82.6329 15.5953 82.2296 15.6613 81.8042 15.72C81.3936 15.764 80.9756 15.8227 80.5502 15.896C80.1249 15.9547 79.7436 16.0573 79.4062 16.204C79.0689 16.3507 78.7902 16.5633 78.5702 16.842C78.3649 17.106 78.2622 17.4727 78.2622 17.942C78.2622 18.25 78.3209 18.514 78.4382 18.734C78.5702 18.9393 78.7316 19.108 78.9222 19.24C79.1276 19.372 79.3622 19.4673 79.6262 19.526C79.8902 19.5847 80.1689 19.614 80.4622 19.614C81.0782 19.614 81.6062 19.5333 82.0462 19.372C82.4862 19.196 82.8456 18.9833 83.1242 18.734C83.4029 18.47 83.6082 18.1913 83.7402 17.898C83.8722 17.59 83.9382 17.304 83.9382 17.04V15.126ZM90.0786 15.412C90.0786 14.8547 90.1373 14.312 90.2546 13.784C90.372 13.256 90.5626 12.7867 90.8266 12.376C91.0906 11.9653 91.4426 11.6353 91.8826 11.386C92.3226 11.1367 92.858 11.012 93.4886 11.012C94.134 11.012 94.684 11.1367 95.1386 11.386C95.5933 11.6207 95.96 11.936 96.2386 12.332C96.532 12.728 96.7446 13.19 96.8766 13.718C97.0086 14.2313 97.0746 14.7667 97.0746 15.324C97.0746 15.852 97.0086 16.3727 96.8766 16.886C96.7593 17.3993 96.5613 17.8613 96.2826 18.272C96.004 18.668 95.6446 18.9907 95.2046 19.24C94.7646 19.4893 94.2293 19.614 93.5986 19.614C92.9973 19.614 92.4693 19.4967 92.0146 19.262C91.5746 19.0273 91.208 18.712 90.9146 18.316C90.636 17.92 90.4233 17.4727 90.2766 16.974C90.1446 16.4607 90.0786 15.94 90.0786 15.412ZM98.8786 21V5.292H97.0086V11.144H96.9646C96.7593 10.8067 96.5026 10.528 96.1946 10.308C95.9013 10.0733 95.586 9.89 95.2486 9.758C94.9113 9.61133 94.574 9.50867 94.2366 9.45C93.8993 9.39133 93.584 9.362 93.2906 9.362C92.4253 9.362 91.6626 9.52333 91.0026 9.846C90.3573 10.154 89.8146 10.5793 89.3746 11.122C88.9493 11.65 88.6266 12.2733 88.4066 12.992C88.2013 13.7107 88.0986 14.4733 88.0986 15.28C88.0986 16.0867 88.2086 16.8493 88.4286 17.568C88.6486 18.2867 88.9713 18.9173 89.3966 19.46C89.8366 20.0027 90.3793 20.4353 91.0246 20.758C91.6846 21.0807 92.4546 21.242 93.3346 21.242C94.1266 21.242 94.8526 21.1027 95.5126 20.824C96.1726 20.5453 96.6566 20.0907 96.9646 19.46H97.0086V21H98.8786ZM103.12 15.324C103.12 14.6347 103.208 14.026 103.384 13.498C103.574 12.9553 103.831 12.5007 104.154 12.134C104.476 11.7673 104.85 11.4887 105.276 11.298C105.716 11.1073 106.178 11.012 106.662 11.012C107.146 11.012 107.6 11.1073 108.026 11.298C108.466 11.4887 108.847 11.7673 109.17 12.134C109.492 12.5007 109.742 12.9553 109.918 13.498C110.108 14.026 110.204 14.6347 110.204 15.324C110.204 16.0133 110.108 16.6293 109.918 17.172C109.742 17.7 109.492 18.1473 109.17 18.514C108.847 18.866 108.466 19.1373 108.026 19.328C107.6 19.5187 107.146 19.614 106.662 19.614C106.178 19.614 105.716 19.5187 105.276 19.328C104.85 19.1373 104.476 18.866 104.154 18.514C103.831 18.1473 103.574 17.7 103.384 17.172C103.208 16.6293 103.12 16.0133 103.12 15.324ZM101.14 15.324C101.14 16.16 101.257 16.9373 101.492 17.656C101.726 18.3747 102.078 19.0053 102.548 19.548C103.017 20.076 103.596 20.494 104.286 20.802C104.975 21.0953 105.767 21.242 106.662 21.242C107.571 21.242 108.363 21.0953 109.038 20.802C109.727 20.494 110.306 20.076 110.776 19.548C111.245 19.0053 111.597 18.3747 111.832 17.656C112.066 16.9373 112.184 16.16 112.184 15.324C112.184 14.488 112.066 13.7107 111.832 12.992C111.597 12.2587 111.245 11.628 110.776 11.1C110.306 10.5573 109.727 10.132 109.038 9.824C108.363 9.516 107.571 9.362 106.662 9.362C105.767 9.362 104.975 9.516 104.286 9.824C103.596 10.132 103.017 10.5573 102.548 11.1C102.078 11.628 101.726 12.2587 101.492 12.992C101.257 13.7107 101.14 14.488 101.14 15.324Z" fill="#262626"/>
<path fill-rule="evenodd" clip-rule="evenodd" d="M11.7112 1.64581C11.6997 1.65726 11.4742 1.69607 11.21 1.73206C10.7074 1.80045 9.95953 1.99782 9.60834 2.15469C9.49505 2.20527 9.3724 2.2467 9.33586 2.2467C9.29932 2.2467 9.12293 2.32032 8.944 2.4103C8.76501 2.50029 8.58608 2.57391 8.5464 2.57391C8.50665 2.57391 8.47416 2.59864 8.47416 2.62881C8.47416 2.65905 8.3961 2.71939 8.30065 2.7629C8.11453 2.84778 7.44189 3.28003 7.32409 3.39049C7.28486 3.42727 7.15594 3.531 7.03762 3.62098C6.42904 4.08378 5.14005 5.62939 5.14005 5.89639C5.14005 5.93468 5.11599 5.97577 5.08664 5.98782C5.03885 6.00732 4.83671 6.40939 4.52788 7.09928C4.46905 7.23069 4.42093 7.37348 4.42093 7.41661C4.42093 7.45974 4.37831 7.58781 4.32614 7.70122C4.13381 8.11965 3.96351 9.31135 3.96344 10.2398C3.96324 11.669 4.25455 12.8847 4.89431 14.1244C5.02323 14.3743 5.9777 15.8557 6.05386 15.9241C6.07386 15.9421 6.29568 16.266 6.54672 16.6439C6.79782 17.0218 7.018 17.3458 7.03611 17.3638C7.05416 17.3818 7.15712 17.5286 7.26492 17.6901C7.49014 18.0276 8.44173 19.3929 8.51992 19.4906C8.57921 19.5649 9.06109 20.2736 9.16059 20.433C9.19655 20.4906 9.24264 20.5524 9.26297 20.5704C9.28336 20.5884 9.45693 20.8387 9.64868 21.1267C9.96104 21.5956 10.3331 22.1178 10.491 22.3088C10.5226 22.347 10.5858 22.4482 10.6315 22.5337C10.6772 22.6192 10.7408 22.7203 10.773 22.7586C10.865 22.8683 11.5693 23.8569 11.6901 24.0461C11.7501 24.14 11.8475 24.2652 11.9065 24.3242C11.9655 24.3832 11.9969 24.4315 11.9763 24.4315C11.9558 24.4315 12.0001 24.4926 12.0747 24.5673C12.1493 24.642 12.3106 24.7194 12.4332 24.7393C12.6322 24.7716 12.6875 24.7435 12.9513 24.4757C13.1137 24.3108 13.2465 24.1551 13.2465 24.1297C13.2465 24.1043 13.3572 23.9336 13.4926 23.7503C13.628 23.5671 13.8265 23.2846 13.9337 23.1227C14.0409 22.9607 14.1465 22.8135 14.1681 22.7955C14.1898 22.7775 14.2437 22.6942 14.2878 22.6103C14.3319 22.5265 14.409 22.4087 14.4591 22.3486C14.5092 22.2884 14.727 21.9889 14.9431 21.6829C15.1592 21.377 15.3732 21.0741 15.4187 21.0099C15.6471 20.6873 16.2195 19.847 16.3981 19.5724C16.5092 19.4014 16.6252 19.2616 16.6557 19.2616C16.6863 19.2616 16.7114 19.2274 16.7114 19.1857C16.7114 19.144 16.8221 18.96 16.9575 18.7767C17.0929 18.5935 17.2914 18.3111 17.3986 18.1491C17.5058 17.9871 17.609 17.8399 17.628 17.8219C17.6469 17.8039 17.8671 17.4799 18.1172 17.102C18.3672 16.7241 18.7223 16.2087 18.9061 15.9568C19.0899 15.7048 19.2524 15.4692 19.2671 15.4332C19.2819 15.3973 19.4579 15.1175 19.6583 14.8115C20.3825 13.706 20.8598 12.3829 20.9944 11.1077L21.0366 10.7086L20.5681 10.6693C20.3104 10.6476 20.0653 10.6024 20.0235 10.5687C19.9817 10.535 19.8561 10.488 19.7444 10.4641C19.6328 10.4402 19.474 10.3706 19.3916 10.3093C19.0511 10.0559 18.6262 9.63542 18.5381 9.46442C18.4863 9.36397 18.4225 9.26561 18.3961 9.24591C18.3202 9.1891 18.0863 8.19452 18.0852 7.92378L18.0842 7.67838H17.6824C17.275 7.67838 16.5681 7.47309 16.3962 7.30483C16.3487 7.25831 16.2826 7.22028 16.2493 7.22028C16.1461 7.22028 15.5316 6.54394 15.4923 6.38714C15.4718 6.30547 15.4329 6.23866 15.4059 6.23866C15.3788 6.23866 15.2897 6.00313 15.2078 5.71532C15.0654 5.21488 15.0544 4.71196 15.1786 4.38796C15.2077 4.31211 15.119 4.28626 14.7374 4.25904C14.2933 4.22743 13.7679 4.05388 13.524 3.85827C13.1948 3.59428 12.8511 3.21923 12.7068 2.96656C12.5194 2.63856 12.3313 2.0505 12.3313 1.79305C12.3313 1.63704 12.3098 1.625 12.0316 1.625C11.8668 1.625 11.7226 1.63436 11.7112 1.64581ZM13.4426 7.33134C14.2669 7.66699 14.9917 8.43312 15.117 9.10128C15.1391 9.21927 15.1833 9.33203 15.2151 9.35173C15.247 9.37143 15.2724 9.62881 15.2715 9.92362C15.2683 10.981 14.8347 11.7989 13.9741 12.3707C13.1316 12.9305 12.0048 12.955 11.1149 12.4328C10.627 12.1465 10.4622 11.9905 10.1539 11.5233C9.82695 11.028 9.56703 9.96727 9.70333 9.68476C9.74079 9.60702 9.78838 9.42129 9.80898 9.27189C9.88651 8.71046 10.4278 7.95258 11.0078 7.59337C11.2356 7.45234 11.6659 7.27473 11.9717 7.19555C12.2324 7.12808 13.1518 7.21295 13.4426 7.33134Z" fill="#F54748"/>
</svg>
